<svg width="2301" height="988" viewBox="0 0 2301 988" fill="none" xmlns="http://www.w3.org/2000/svg">
<g clip-path="url(#clip0_805_111)">
<path d="M2248.12 149.75C2224.79 106.56 2192.39 72.22 2150.92 46.72C2109.45 21.24 2063.65 8.48999 2013.54 8.48999C1961.7 8.48999 1914.18 21.24 1870.98 46.72C1827.78 72.22 1793.43 106.56 1767.95 149.75C1742.47 192.95 1729.73 240.47 1729.73 292.31C1729.73 343.28 1742.46 389.29 1767.95 430.33C1793.43 471.38 1827.78 503.56 1870.98 526.89C1912.16 549.13 1957.27 560.75 2006.3 561.79V377.58C1984.42 376.13 1965.87 368.03 1950.68 353.22C1933.84 336.81 1925.41 316.08 1925.41 291.02C1925.41 265.96 1933.83 245.22 1950.68 228.8C1967.52 212.39 1988.48 204.18 2013.54 204.18C2037.73 204.18 2057.82 212.4 2073.81 228.8C2089.79 245.22 2097.79 265.96 2097.79 291.02V377.85H2097.56V561.88H2097.79C2097.79 586.93 2090.87 608.52 2077.04 626.68C2063.21 644.82 2037.51 664.26 1999.93 685.01C1962.34 705.73 1905.1 732.51 1828.21 765.35L1886.54 929.94C1991.95 884.14 2072.07 842.89 2126.95 806.17C2181.81 769.45 2221.56 726.25 2246.18 676.58C2270.8 626.88 2283.12 561.88 2283.12 481.52V292.32C2283.12 240.47 2271.45 192.95 2248.12 149.75Z" fill="#2F63EA"/>
<path d="M2086.57 611.54L2251.76 664.57C2229.19 733.42 2147.25 791.78 2147.25 791.78C2048.27 867.56 1886.55 929.94 1886.55 929.94L1828.22 765.35C2073.49 655.9 2086.57 611.54 2086.57 611.54Z" fill="#FF9E2C"/>
<path d="M86.4531 458L243.453 342C270.12 370.667 300.453 404.333 334.453 443C369.12 481.667 399.453 522 425.453 564C451.453 606 464.786 646.333 465.453 685C460.786 728.333 447.453 769 425.453 807C394.12 854.333 353.786 886.667 304.453 904C255.12 920.667 205.786 929.333 156.453 930C107.12 930.667 66.7865 930.667 35.4531 930L47.4531 735C72.7865 735 102.12 735.333 135.453 736C169.453 736.667 199.453 733 225.453 725C248.12 717.667 262.453 704 268.453 684C255.786 662.667 237.453 637.333 213.453 608C189.453 578.667 165.453 550.333 141.453 523C117.453 495.667 99.1198 474 86.4531 458ZM545.336 199H740.336V704C741.003 708 742.003 713 743.336 719C745.336 724.333 750.669 728 759.336 730C769.336 731.333 780.003 732.333 791.336 733C802.669 733.667 810.669 734 815.336 734H838.336V930H815.336C757.336 930 706.003 919.667 661.336 899C617.336 878.333 584.336 843.667 562.336 795C555.003 777.667 550.336 762.333 548.336 749C546.336 735.667 545.336 725.333 545.336 718V199ZM818.578 929V734H973.578V929H818.578ZM953.344 929V734H1108.34V929H953.344ZM1088.11 734C1187.44 734 1281.78 734.333 1371.11 735C1383.78 735 1396.78 733.667 1410.11 731C1424.11 728.333 1435.44 723.667 1444.11 717C1447.44 711 1449.11 700 1449.11 684C1449.78 668 1449.78 656 1449.11 648C1449.11 641.333 1448.78 635.333 1448.11 630C1448.11 624 1448.44 619 1449.11 615C1372.44 581 1293.44 546.667 1212.11 512C1200.78 508.667 1185.44 501.667 1166.11 491C1147.44 480.333 1130.78 460.667 1116.11 432C1102.11 390.667 1101.11 353.667 1113.11 321C1125.11 288.333 1147.78 263 1181.11 245L1519.11 70L1609.11 243L1381.11 361C1379.11 361.667 1377.11 362.667 1375.11 364C1373.11 364.667 1371.11 365.667 1369.11 367C1373.11 369 1377.11 370.667 1381.11 372C1443.11 398 1499.11 423 1549.11 447C1591.78 466.333 1618.11 492.333 1628.11 525C1638.11 557 1643.44 594 1644.11 636C1647.44 667.333 1645.44 704.333 1638.11 747C1631.44 789 1610.11 827.333 1574.11 862C1536.11 892.667 1497.44 912 1458.11 920C1419.44 928 1388.11 931 1364.11 929C1279.44 929.667 1187.78 929.667 1089.11 929L1088.11 734Z" fill="#2F63EA"/>
</g>
<defs>
<clipPath id="clip0_805_111">
<rect width="2301" height="988" fill="white"/>
</clipPath>
</defs>
</svg>
