<svg width="34" height="34" viewBox="0 0 34 34" fill="none" xmlns="http://www.w3.org/2000/svg">
<path id="Vector" d="M26.5507 29.8C26.2961 25.1736 24.8796 21.8 17 21.8C9.12041 21.8 7.70393 25.1736 7.4493 29.8M21.8 12.2C21.8 14.851 19.651 17 17 17C14.349 17 12.2 14.851 12.2 12.2C12.2 9.54903 14.349 7.4 17 7.4C19.651 7.4 21.8 9.54903 21.8 12.2ZM33 17C33 25.8366 25.8366 33 17 33C8.16344 33 1 25.8366 1 17C1 8.16344 8.16344 1 17 1C25.8366 1 33 8.16344 33 17Z" stroke="#1C274C" stroke-width="1.5" stroke-linecap="round"/>
</svg>
