<svg width="21" height="21" viewBox="0 0 21 21" fill="none" xmlns="http://www.w3.org/2000/svg">
<path id="Vector" d="M11.568 0.25308C11.1555 0.215579 10.7907 0.519586 10.7532 0.932098C10.7156 1.34461 11.0197 1.70942 11.4322 1.74692L11.568 0.25308ZM16.8034 4.18198L17.3337 3.65165L16.8034 4.18198ZM19.2384 9.55318C19.2759 9.9657 19.6407 10.2697 20.0533 10.2322C20.4658 10.1947 20.7698 9.82989 20.7323 9.41738L19.2384 9.55318ZM12.4131 3.81443C12.0148 3.70064 11.5997 3.93126 11.4859 4.32953C11.3721 4.72781 11.6027 5.14292 12.001 5.25672L12.4131 3.81443ZM14.6819 6.30334L14.1516 6.83367L14.6819 6.30334ZM15.7285 8.98426C15.8423 9.38253 16.2574 9.61315 16.6557 9.49936C17.054 9.38556 17.2846 8.97045 17.1708 8.57217L15.7285 8.98426ZM13.1007 14.0271L13.6445 14.5436V14.5436L13.1007 14.0271ZM13.5562 13.5476L13.0124 13.0311V13.0311L13.5562 13.5476ZM15.9728 13.2122L15.5987 13.8623H15.5987L15.9728 13.2122ZM17.8833 14.3119L17.5092 14.9619L17.8833 14.3119ZM18.4217 17.7584L18.9655 18.2749L18.4217 17.7584ZM17.0011 19.2539L16.4573 18.7374L17.0011 19.2539ZM15.6763 19.963L15.7499 20.7094L15.6763 19.963ZM5.81536 15.4751L5.27157 15.9916L5.81536 15.4751ZM1.00289 5.96587L0.253966 6.00606L0.253966 6.00606L1.00289 5.96587ZM7.1907 7.805L7.7345 8.32152L7.1907 7.805ZM7.47752 7.50304L8.02131 8.01956L7.47752 7.50304ZM7.63424 4.69303L8.24664 4.26005L7.63424 4.69303ZM6.37326 2.90954L5.76086 3.34253V3.34253L6.37326 2.90954ZM3.26145 2.60857L3.80524 3.12509H3.80524L3.26145 2.60857ZM1.69185 4.26107L1.14806 3.74455L1.14806 3.74455L1.69185 4.26107ZM9.06312 12.0558L9.60692 11.5393L9.06312 12.0558ZM11.5001 1C11.4322 1.74692 11.4318 1.74688 11.4314 1.74685C11.4312 1.74683 11.4308 1.7468 11.4306 1.74678C11.4301 1.74673 11.4297 1.74669 11.4292 1.74665C11.4284 1.74657 11.4277 1.7465 11.4271 1.74644C11.426 1.74633 11.4255 1.74627 11.4254 1.74627C11.4254 1.74626 11.4276 1.7465 11.4318 1.74705C11.4404 1.74814 11.4576 1.7505 11.4828 1.75471C11.5334 1.76314 11.6166 1.77901 11.7292 1.80716C11.9542 1.86342 12.2975 1.96892 12.7334 2.16266C13.6035 2.54934 14.8529 3.29213 16.273 4.71231L17.3337 3.65165C15.784 2.10198 14.3818 1.25378 13.3426 0.791938C12.8239 0.561408 12.3982 0.428258 12.093 0.351943C11.9404 0.313801 11.8181 0.289896 11.7294 0.27512C11.6851 0.267733 11.6492 0.262628 11.6222 0.259168C11.6086 0.257438 11.5973 0.256119 11.5883 0.255131C11.5837 0.254637 11.5798 0.254226 11.5764 0.253887C11.5747 0.253718 11.5732 0.253567 11.5718 0.253433C11.5711 0.253366 11.5704 0.253303 11.5698 0.253244C11.5694 0.253215 11.569 0.253174 11.5688 0.253159C11.5684 0.253119 11.568 0.25308 11.5001 1ZM16.273 4.71231C17.6932 6.13249 18.436 7.38189 18.8227 8.25193C19.0164 8.68783 19.1219 9.03111 19.1782 9.25618C19.2063 9.36878 19.2222 9.45196 19.2306 9.50251C19.2349 9.5278 19.2372 9.54493 19.2383 9.5535C19.2389 9.55779 19.2391 9.55995 19.2391 9.55991C19.2391 9.55989 19.239 9.55933 19.2389 9.55821C19.2389 9.55765 19.2388 9.55695 19.2387 9.55611C19.2387 9.55569 19.2386 9.55524 19.2386 9.55475C19.2386 9.55451 19.2385 9.55412 19.2385 9.55399C19.2385 9.55359 19.2384 9.55318 19.9854 9.48528C20.7323 9.41738 20.7322 9.41695 20.7322 9.41652C20.7322 9.41636 20.7321 9.41591 20.7321 9.4156C20.732 9.41497 20.732 9.4143 20.7319 9.4136C20.7318 9.41219 20.7316 9.41064 20.7315 9.40895C20.7311 9.40557 20.7307 9.40161 20.7302 9.39708C20.7292 9.38804 20.7279 9.37672 20.7262 9.3632C20.7227 9.33614 20.7176 9.30024 20.7102 9.25592C20.6955 9.16726 20.6716 9.04494 20.6334 8.89237C20.5571 8.58711 20.4239 8.16141 20.1934 7.64272C19.7316 6.60357 18.8834 5.20132 17.3337 3.65165L16.273 4.71231ZM12.207 4.53557C12.001 5.25672 12.0006 5.25662 12.0003 5.25652C12.0002 5.25649 11.9999 5.25639 11.9996 5.25633C11.9992 5.2562 11.9988 5.25608 11.9984 5.25597C11.9976 5.25573 11.9968 5.25551 11.9961 5.25531C11.9947 5.2549 11.9936 5.25456 11.9927 5.25429C11.9909 5.25374 11.99 5.25346 11.9901 5.25349C11.9903 5.25353 11.9941 5.25478 12.0017 5.25745C12.0167 5.26278 12.0463 5.27381 12.0895 5.29233C12.1758 5.32933 12.317 5.39643 12.5056 5.50804C12.8824 5.73101 13.4516 6.13372 14.1516 6.83367L15.2122 5.77301C14.4273 4.98804 13.7591 4.50686 13.2696 4.21718C13.0251 4.07247 12.826 3.97605 12.6804 3.91361C12.6075 3.88241 12.5482 3.85974 12.5033 3.84381C12.4808 3.83584 12.462 3.82956 12.4469 3.82474C12.4394 3.82233 12.4328 3.82028 12.4271 3.81857C12.4243 3.81772 12.4217 3.81695 12.4194 3.81626C12.4182 3.81592 12.4171 3.81559 12.416 3.81529C12.4155 3.81513 12.415 3.81499 12.4145 3.81484C12.4143 3.81477 12.4139 3.81467 12.4138 3.81463C12.4134 3.81453 12.4131 3.81443 12.207 4.53557ZM14.1516 6.83367C14.8515 7.53362 15.2542 8.10287 15.4772 8.47961C15.5888 8.66821 15.6559 8.80944 15.6929 8.89577C15.7114 8.93898 15.7225 8.96856 15.7278 8.98358C15.7305 8.9911 15.7317 8.99499 15.7318 8.99514C15.7318 8.99521 15.7315 8.99435 15.731 8.99254C15.7307 8.99164 15.7303 8.9905 15.7299 8.98912C15.7297 8.98843 15.7295 8.98768 15.7293 8.98687C15.7292 8.98646 15.729 8.98604 15.7289 8.98561C15.7289 8.98539 15.7288 8.98505 15.7287 8.98494C15.7286 8.9846 15.7285 8.98426 16.4497 8.77821C17.1708 8.57217 17.1707 8.57182 17.1706 8.57147C17.1706 8.57134 17.1705 8.57098 17.1704 8.57073C17.1703 8.57024 17.1701 8.56973 17.17 8.5692C17.1697 8.56815 17.1693 8.56704 17.169 8.56587C17.1683 8.56352 17.1675 8.56094 17.1667 8.55812C17.165 8.55247 17.1629 8.54587 17.1605 8.53833C17.1557 8.52325 17.1494 8.50442 17.1414 8.48197C17.1255 8.43706 17.1028 8.3777 17.0716 8.30489C17.0092 8.15921 16.9128 7.96014 16.7681 7.71563C16.4784 7.22617 15.9972 6.55798 15.2122 5.77301L14.1516 6.83367ZM13.6445 14.5436L14.1 14.0641L13.0124 13.0311L12.5569 13.5106L13.6445 14.5436ZM15.5987 13.8623L17.5092 14.9619L18.2575 13.6619L16.347 12.5622L15.5987 13.8623ZM17.8779 17.2418L16.4573 18.7374L17.5449 19.7704L18.9655 18.2749L17.8779 17.2418ZM15.6026 19.2167C14.1676 19.3583 10.4233 19.2374 6.35915 14.9586L5.27157 15.9916C9.70095 20.6549 13.9261 20.8894 15.7499 20.7094L15.6026 19.2167ZM6.35915 14.9586C2.48303 10.8778 1.83285 7.43548 1.75181 5.92567L0.253966 6.00606C0.353222 7.85529 1.1384 11.6402 5.27157 15.9916L6.35915 14.9586ZM7.7345 8.32152L8.02131 8.01956L6.93372 6.98653L6.64691 7.28849L7.7345 8.32152ZM8.24664 4.26005L6.98565 2.47656L5.76086 3.34253L7.02185 5.12601L8.24664 4.26005ZM2.71766 2.09206L1.14806 3.74455L2.23564 4.77758L3.80524 3.12509L2.71766 2.09206ZM7.1907 7.805C6.64691 7.28849 6.64622 7.28922 6.64552 7.28995C6.64528 7.29021 6.64458 7.29095 6.64411 7.29145C6.64316 7.29247 6.64219 7.2935 6.64121 7.29456C6.63924 7.29668 6.6372 7.29889 6.6351 7.3012C6.63091 7.30581 6.62646 7.3108 6.62178 7.31618C6.61243 7.32694 6.60215 7.33924 6.59116 7.35313C6.56918 7.38091 6.54431 7.41504 6.51822 7.45581C6.46591 7.53757 6.40917 7.64524 6.36112 7.78026C6.26342 8.05483 6.21018 8.41843 6.27671 8.8725C6.40742 9.76461 6.99198 10.9643 8.51933 12.5723L9.60692 11.5393C8.17926 10.0363 7.82761 9.11057 7.76086 8.65504C7.72866 8.43528 7.76138 8.3195 7.77432 8.28314C7.78159 8.2627 7.78635 8.25702 7.78169 8.26429C7.77944 8.26782 7.77494 8.27444 7.76738 8.284C7.76359 8.28878 7.75904 8.2943 7.7536 8.30056C7.75088 8.30368 7.74793 8.30699 7.74476 8.31049C7.74317 8.31223 7.74152 8.31403 7.73981 8.31587C7.73896 8.31679 7.73809 8.31772 7.7372 8.31866C7.73676 8.31913 7.73608 8.31985 7.73586 8.32008C7.73518 8.3208 7.7345 8.32152 7.1907 7.805ZM8.51933 12.5723C10.0422 14.1756 11.1923 14.8059 12.0698 14.9484C12.5201 15.0216 12.8846 14.9632 13.1606 14.8543C13.2955 14.8011 13.4022 14.7386 13.4823 14.6818C13.5223 14.6534 13.5556 14.6266 13.5824 14.603C13.5959 14.5912 13.6077 14.5802 13.618 14.5703C13.6232 14.5653 13.628 14.5606 13.6324 14.5561C13.6346 14.5539 13.6367 14.5517 13.6387 14.5497C13.6397 14.5486 13.6407 14.5476 13.6417 14.5466C13.6422 14.5461 13.6429 14.5454 13.6431 14.5451C13.6438 14.5444 13.6445 14.5436 13.1007 14.0271C12.5569 13.5106 12.5576 13.5099 12.5583 13.5092C12.5585 13.5089 12.5592 13.5082 12.5596 13.5078C12.5605 13.5068 12.5614 13.5059 12.5623 13.505C12.5641 13.5032 12.5658 13.5015 12.5674 13.4998C12.5708 13.4964 12.574 13.4933 12.577 13.4904C12.583 13.4845 12.5885 13.4796 12.5933 13.4754C12.6028 13.467 12.6099 13.4615 12.6145 13.4583C12.6239 13.4516 12.6229 13.4539 12.6102 13.4589C12.5909 13.4665 12.5 13.4986 12.3103 13.4678C11.9077 13.4025 11.0391 13.0471 9.60692 11.5393L8.51933 12.5723ZM6.98565 2.47656C5.97206 1.04298 3.94384 0.801115 2.71766 2.09206L3.80524 3.12509C4.32808 2.57464 5.24851 2.61788 5.76086 3.34253L6.98565 2.47656ZM1.75181 5.92567C1.73038 5.52637 1.90425 5.12647 2.23564 4.77758L1.14806 3.74455C0.612205 4.3087 0.204926 5.09239 0.253966 6.00606L1.75181 5.92567ZM16.4573 18.7374C16.1783 19.0312 15.8864 19.1886 15.6026 19.2167L15.7499 20.7094C16.497 20.6357 17.1016 20.2372 17.5449 19.7704L16.4573 18.7374ZM8.02131 8.01956C8.98889 7.00088 9.05737 5.40671 8.24664 4.26005L7.02185 5.12601C7.44399 5.72308 7.37926 6.51746 6.93372 6.98653L8.02131 8.01956ZM17.5092 14.9619C18.33 15.4344 18.4907 16.5967 17.8779 17.2418L18.9655 18.2749C20.2704 16.901 19.8904 14.6018 18.2575 13.6619L17.5092 14.9619ZM14.1 14.0641C14.4854 13.6583 15.086 13.5672 15.5987 13.8623L16.347 12.5622C15.2485 11.93 13.8861 12.1112 13.0124 13.0311L14.1 14.0641Z" fill="#1C274C"/>
</svg>
