<svg width="22" height="22" viewBox="0 0 22 22" fill="none" xmlns="http://www.w3.org/2000/svg">
<path id="Vector" d="M19.3521 9.5208L20.0636 9.75797L19.3521 9.5208ZM17.6357 14.6701L16.9242 14.433V14.433L17.6357 14.6701ZM7.32987 4.36432L7.0927 3.65281L7.32987 4.36432ZM12.4792 2.64788L12.7164 3.35939L12.4792 2.64788ZM9.49951 14.6701L10.211 14.433L9.49951 14.6701ZM9.04493 13.5521L8.4217 13.9693H8.4217L9.04493 13.5521ZM7.32987 12.5005L7.56704 11.789H7.56704L7.32987 12.5005ZM8.44793 12.9551L8.86516 12.3318L8.86515 12.3318L8.44793 12.9551ZM1.36806 7.06698L0.719666 6.69004H0.719666L1.36806 7.06698ZM1.36806 9.79783L0.719666 10.1748H0.719666L1.36806 9.79783ZM14.933 20.6319L14.5561 19.9835H14.5561L14.933 20.6319ZM12.2022 20.6319L11.8252 21.2803H11.8252L12.2022 20.6319ZM15.2116 7.84854C15.5061 7.55727 15.5087 7.0824 15.2175 6.78789C14.9262 6.49338 14.4513 6.49075 14.1568 6.78201L15.2116 7.84854ZM18.6406 9.28363L16.9242 14.433L18.3472 14.9073L20.0636 9.75797L18.6406 9.28363ZM7.56704 5.07583L12.7164 3.35939L12.242 1.93636L7.0927 3.65281L7.56704 5.07583ZM10.211 14.433C10.0299 13.8897 9.90078 13.4823 9.66817 13.1348L8.4217 13.9693C8.51528 14.1091 8.58045 14.2847 8.788 14.9073L10.211 14.433ZM7.09269 13.212C7.71535 13.4196 7.89091 13.4847 8.03071 13.5783L8.86515 12.3318C8.51769 12.0992 8.1103 11.9701 7.56704 11.789L7.09269 13.212ZM9.66817 13.1348C9.45556 12.8173 9.18274 12.5444 8.86516 12.3318L8.03071 13.5783C8.18534 13.6818 8.31818 13.8147 8.4217 13.9693L9.66817 13.1348ZM7.0927 3.65281C5.29045 4.25356 3.89411 4.71838 2.88738 5.14656C1.92109 5.55754 1.11525 6.00958 0.719666 6.69004L2.01645 7.44393C2.13672 7.23704 2.49648 6.94285 3.47447 6.5269C4.41202 6.12814 5.73866 5.68529 7.56704 5.07583L7.0927 3.65281ZM7.56704 11.789C5.73865 11.1795 4.41202 10.7367 3.47447 10.3379C2.49647 9.92196 2.13672 9.62777 2.01645 9.42089L0.719666 10.1748C1.11525 10.8552 1.92109 11.3073 2.88738 11.7183C3.89411 12.1464 5.29044 12.6113 7.09269 13.212L7.56704 11.789ZM0.719666 6.69004C0.0934449 7.76722 0.0934445 9.0976 0.719666 10.1748L2.01645 9.42089C1.66118 8.80978 1.66118 8.05503 2.01645 7.44393L0.719666 6.69004ZM16.9242 14.433C16.3147 16.2613 15.8719 17.588 15.4731 18.5255C15.0571 19.5035 14.763 19.8633 14.5561 19.9835L15.31 21.2803C15.9904 20.8847 16.4425 20.0789 16.8534 19.1126C17.2816 18.1059 17.7464 16.7096 18.3472 14.9073L16.9242 14.433ZM8.788 14.9073C9.38874 16.7096 9.85356 18.1059 10.2817 19.1126C10.6927 20.0789 11.1448 20.8847 11.8252 21.2803L12.5791 19.9835C12.3722 19.8633 12.078 19.5035 11.6621 18.5255C11.2633 17.588 10.8205 16.2613 10.211 14.433L8.788 14.9073ZM14.5561 19.9835C13.945 20.3388 13.1902 20.3388 12.5791 19.9835L11.8252 21.2803C12.9024 21.9066 14.2328 21.9066 15.31 21.2803L14.5561 19.9835ZM20.0636 9.75797C20.8053 7.53299 21.3906 5.78332 21.629 4.44306C21.8665 3.10824 21.8092 1.92042 20.9444 1.05562L19.8837 2.11628C20.2062 2.43876 20.3677 2.96916 20.1522 4.18035C19.9377 5.3861 19.3984 7.01023 18.6406 9.28363L20.0636 9.75797ZM12.7164 3.35939C14.9898 2.60159 16.6139 2.06229 17.8197 1.8478C19.0308 1.63234 19.5612 1.79381 19.8837 2.11628L20.9444 1.05562C20.0796 0.190828 18.8918 0.133531 17.5569 0.370984C16.2167 0.609404 14.467 1.1947 12.242 1.93636L12.7164 3.35939ZM9.66266 13.3363L15.2116 7.84854L14.1568 6.78201L8.6079 12.2698L9.66266 13.3363Z" fill="#1C274C"/>
</svg>
