<svg width="22" height="18" viewBox="0 0 22 18" fill="none" xmlns="http://www.w3.org/2000/svg">
<path id="Vector" d="M5 5L7.1589 6.79908C8.99553 8.32961 9.91385 9.09488 11 9.09488C12.0861 9.09488 13.0045 8.32961 14.8411 6.79908L17 5M9 17H13C16.7712 17 18.6569 17 19.8284 15.8284C21 14.6569 21 12.7712 21 9C21 5.22876 21 3.34315 19.8284 2.17157C18.6569 1 16.7712 1 13 1H9C5.22876 1 3.34315 1 2.17157 2.17157C1 3.34315 1 5.22876 1 9C1 12.7712 1 14.6569 2.17157 15.8284C3.34315 17 5.22876 17 9 17Z" stroke="#1C274C" stroke-width="1.5" stroke-linecap="round"/>
</svg>
